<mxfile host="app.diagrams.net" modified="2024-05-28T10:21:59.183Z" agent="Mozilla/5.0 (X11; CrOS x86_64 14541.0.0) AppleWebKit/537.36 (KHTML, like Gecko) Chrome/124.0.0.0 Safari/537.36" etag="5TI7PKvXUO-jBffGH8ex" version="24.4.9" type="github">
  <diagram name="Page-1" id="9duR8Tt8oifZw0O-LxJR">
    <mxGraphModel dx="1050" dy="557" grid="1" gridSize="10" guides="1" tooltips="1" connect="1" arrows="1" fold="1" page="1" pageScale="1" pageWidth="827" pageHeight="1169" math="0" shadow="0">
      <root>
        <mxCell id="0" />
        <mxCell id="1" parent="0" />
        <mxCell id="jI5kWpLgNnwxY_XqOduI-1" value="" style="shape=card;whiteSpace=wrap;html=1;movable=1;resizable=1;rotatable=1;deletable=1;editable=1;locked=0;connectable=1;" vertex="1" parent="1">
          <mxGeometry x="40" y="140" width="300" height="260" as="geometry" />
        </mxCell>
        <mxCell id="jI5kWpLgNnwxY_XqOduI-2" value="" style="shape=card;whiteSpace=wrap;html=1;" vertex="1" parent="1">
          <mxGeometry x="350" y="140" width="310" height="260" as="geometry" />
        </mxCell>
        <mxCell id="jI5kWpLgNnwxY_XqOduI-3" value="3" style="html=1;shadow=0;dashed=0;align=center;verticalAlign=middle;shape=mxgraph.arrows2.arrow;dy=0;dx=10;notch=0;fontStyle=1" vertex="1" parent="1">
          <mxGeometry x="50" y="160" width="60" height="20" as="geometry" />
        </mxCell>
        <mxCell id="jI5kWpLgNnwxY_XqOduI-4" value="&lt;b&gt;4&lt;/b&gt;" style="html=1;shadow=0;dashed=0;align=center;verticalAlign=middle;shape=mxgraph.arrows2.arrow;dy=0;dx=10;notch=0;" vertex="1" parent="1">
          <mxGeometry x="50" y="190" width="70" height="20" as="geometry" />
        </mxCell>
        <mxCell id="jI5kWpLgNnwxY_XqOduI-5" value="&lt;b&gt;2&lt;/b&gt;" style="html=1;shadow=0;dashed=0;align=center;verticalAlign=middle;shape=mxgraph.arrows2.arrow;dy=0;dx=10;notch=0;" vertex="1" parent="1">
          <mxGeometry x="50" y="220" width="40" height="20" as="geometry" />
        </mxCell>
        <mxCell id="jI5kWpLgNnwxY_XqOduI-6" value="&lt;b&gt;6&lt;/b&gt;" style="html=1;shadow=0;dashed=0;align=center;verticalAlign=middle;shape=mxgraph.arrows2.arrow;dy=0;dx=10;notch=0;" vertex="1" parent="1">
          <mxGeometry x="50" y="250" width="120" height="20" as="geometry" />
        </mxCell>
        <mxCell id="jI5kWpLgNnwxY_XqOduI-7" value="&lt;b&gt;1&lt;/b&gt;" style="html=1;shadow=0;dashed=0;align=center;verticalAlign=middle;shape=mxgraph.arrows2.arrow;dy=0;dx=10;notch=0;" vertex="1" parent="1">
          <mxGeometry x="50" y="280" width="30" height="20" as="geometry" />
        </mxCell>
        <mxCell id="jI5kWpLgNnwxY_XqOduI-8" value="&lt;b&gt;5&lt;/b&gt;" style="html=1;shadow=0;dashed=0;align=center;verticalAlign=middle;shape=mxgraph.arrows2.arrow;dy=0;dx=10;notch=0;" vertex="1" parent="1">
          <mxGeometry x="50" y="310" width="90" height="20" as="geometry" />
        </mxCell>
        <mxCell id="jI5kWpLgNnwxY_XqOduI-10" value="&lt;b&gt;8&lt;/b&gt;" style="html=1;shadow=0;dashed=0;align=center;verticalAlign=middle;shape=mxgraph.arrows2.arrow;dy=0;dx=10;notch=0;" vertex="1" parent="1">
          <mxGeometry x="360" y="170" width="180" height="20" as="geometry" />
        </mxCell>
        <mxCell id="jI5kWpLgNnwxY_XqOduI-12" value="&lt;b&gt;7&lt;/b&gt;" style="html=1;shadow=0;dashed=0;align=center;verticalAlign=middle;shape=mxgraph.arrows2.arrow;dy=0;dx=10;notch=0;" vertex="1" parent="1">
          <mxGeometry x="360" y="200" width="170" height="20" as="geometry" />
        </mxCell>
        <mxCell id="jI5kWpLgNnwxY_XqOduI-37" style="edgeStyle=orthogonalEdgeStyle;rounded=0;orthogonalLoop=1;jettySize=auto;html=1;" edge="1" parent="1" source="jI5kWpLgNnwxY_XqOduI-14">
          <mxGeometry relative="1" as="geometry">
            <mxPoint x="250" y="270" as="targetPoint" />
          </mxGeometry>
        </mxCell>
        <mxCell id="jI5kWpLgNnwxY_XqOduI-38" style="edgeStyle=orthogonalEdgeStyle;rounded=0;orthogonalLoop=1;jettySize=auto;html=1;" edge="1" parent="1" source="jI5kWpLgNnwxY_XqOduI-14">
          <mxGeometry relative="1" as="geometry">
            <mxPoint x="250" y="235" as="targetPoint" />
          </mxGeometry>
        </mxCell>
        <mxCell id="jI5kWpLgNnwxY_XqOduI-40" style="edgeStyle=orthogonalEdgeStyle;rounded=0;orthogonalLoop=1;jettySize=auto;html=1;" edge="1" parent="1" source="jI5kWpLgNnwxY_XqOduI-14">
          <mxGeometry relative="1" as="geometry">
            <mxPoint x="250" y="205" as="targetPoint" />
          </mxGeometry>
        </mxCell>
        <mxCell id="jI5kWpLgNnwxY_XqOduI-43" style="edgeStyle=orthogonalEdgeStyle;rounded=0;orthogonalLoop=1;jettySize=auto;html=1;" edge="1" parent="1" source="jI5kWpLgNnwxY_XqOduI-14">
          <mxGeometry relative="1" as="geometry">
            <mxPoint x="250" y="175" as="targetPoint" />
          </mxGeometry>
        </mxCell>
        <mxCell id="jI5kWpLgNnwxY_XqOduI-44" style="edgeStyle=orthogonalEdgeStyle;rounded=0;orthogonalLoop=1;jettySize=auto;html=1;" edge="1" parent="1" source="jI5kWpLgNnwxY_XqOduI-14">
          <mxGeometry relative="1" as="geometry">
            <mxPoint x="250" y="295" as="targetPoint" />
          </mxGeometry>
        </mxCell>
        <mxCell id="jI5kWpLgNnwxY_XqOduI-45" style="edgeStyle=orthogonalEdgeStyle;rounded=0;orthogonalLoop=1;jettySize=auto;html=1;" edge="1" parent="1" source="jI5kWpLgNnwxY_XqOduI-14">
          <mxGeometry relative="1" as="geometry">
            <mxPoint x="250" y="325" as="targetPoint" />
          </mxGeometry>
        </mxCell>
        <mxCell id="jI5kWpLgNnwxY_XqOduI-46" style="edgeStyle=orthogonalEdgeStyle;rounded=0;orthogonalLoop=1;jettySize=auto;html=1;" edge="1" parent="1" source="jI5kWpLgNnwxY_XqOduI-14">
          <mxGeometry relative="1" as="geometry">
            <mxPoint x="250" y="345" as="targetPoint" />
          </mxGeometry>
        </mxCell>
        <mxCell id="jI5kWpLgNnwxY_XqOduI-47" style="edgeStyle=orthogonalEdgeStyle;rounded=0;orthogonalLoop=1;jettySize=auto;html=1;" edge="1" parent="1" source="jI5kWpLgNnwxY_XqOduI-14">
          <mxGeometry relative="1" as="geometry">
            <mxPoint x="250" y="375" as="targetPoint" />
          </mxGeometry>
        </mxCell>
        <mxCell id="jI5kWpLgNnwxY_XqOduI-14" value="1&lt;div&gt;&lt;br&gt;2&lt;div&gt;&lt;br&gt;3&lt;div&gt;&lt;br&gt;4&lt;div&gt;&lt;br&gt;5&lt;div&gt;&lt;br&gt;6&lt;div&gt;&lt;div&gt;&lt;br&gt;7&lt;div&gt;&lt;br&gt;8&lt;/div&gt;&lt;/div&gt;&lt;/div&gt;&lt;/div&gt;&lt;/div&gt;&lt;/div&gt;&lt;/div&gt;&lt;/div&gt;" style="shape=cylinder3;whiteSpace=wrap;html=1;boundedLbl=1;backgroundOutline=1;size=15;lid=0;" vertex="1" parent="1">
          <mxGeometry x="280" y="145" width="40" height="250" as="geometry" />
        </mxCell>
        <mxCell id="jI5kWpLgNnwxY_XqOduI-68" style="edgeStyle=orthogonalEdgeStyle;rounded=0;orthogonalLoop=1;jettySize=auto;html=1;" edge="1" parent="1" source="jI5kWpLgNnwxY_XqOduI-76">
          <mxGeometry relative="1" as="geometry">
            <mxPoint x="570" y="270" as="targetPoint" />
          </mxGeometry>
        </mxCell>
        <mxCell id="jI5kWpLgNnwxY_XqOduI-69" style="edgeStyle=orthogonalEdgeStyle;rounded=0;orthogonalLoop=1;jettySize=auto;html=1;" edge="1" parent="1" source="jI5kWpLgNnwxY_XqOduI-76">
          <mxGeometry relative="1" as="geometry">
            <mxPoint x="570" y="235" as="targetPoint" />
          </mxGeometry>
        </mxCell>
        <mxCell id="jI5kWpLgNnwxY_XqOduI-70" style="edgeStyle=orthogonalEdgeStyle;rounded=0;orthogonalLoop=1;jettySize=auto;html=1;" edge="1" parent="1" source="jI5kWpLgNnwxY_XqOduI-76">
          <mxGeometry relative="1" as="geometry">
            <mxPoint x="570" y="205" as="targetPoint" />
          </mxGeometry>
        </mxCell>
        <mxCell id="jI5kWpLgNnwxY_XqOduI-71" style="edgeStyle=orthogonalEdgeStyle;rounded=0;orthogonalLoop=1;jettySize=auto;html=1;" edge="1" parent="1" source="jI5kWpLgNnwxY_XqOduI-76">
          <mxGeometry relative="1" as="geometry">
            <mxPoint x="570" y="175" as="targetPoint" />
          </mxGeometry>
        </mxCell>
        <mxCell id="jI5kWpLgNnwxY_XqOduI-72" style="edgeStyle=orthogonalEdgeStyle;rounded=0;orthogonalLoop=1;jettySize=auto;html=1;" edge="1" parent="1" source="jI5kWpLgNnwxY_XqOduI-76">
          <mxGeometry relative="1" as="geometry">
            <mxPoint x="570" y="295" as="targetPoint" />
          </mxGeometry>
        </mxCell>
        <mxCell id="jI5kWpLgNnwxY_XqOduI-73" style="edgeStyle=orthogonalEdgeStyle;rounded=0;orthogonalLoop=1;jettySize=auto;html=1;" edge="1" parent="1" source="jI5kWpLgNnwxY_XqOduI-76">
          <mxGeometry relative="1" as="geometry">
            <mxPoint x="570" y="325" as="targetPoint" />
          </mxGeometry>
        </mxCell>
        <mxCell id="jI5kWpLgNnwxY_XqOduI-74" style="edgeStyle=orthogonalEdgeStyle;rounded=0;orthogonalLoop=1;jettySize=auto;html=1;" edge="1" parent="1" source="jI5kWpLgNnwxY_XqOduI-76">
          <mxGeometry relative="1" as="geometry">
            <mxPoint x="570" y="345" as="targetPoint" />
          </mxGeometry>
        </mxCell>
        <mxCell id="jI5kWpLgNnwxY_XqOduI-75" style="edgeStyle=orthogonalEdgeStyle;rounded=0;orthogonalLoop=1;jettySize=auto;html=1;" edge="1" parent="1" source="jI5kWpLgNnwxY_XqOduI-76">
          <mxGeometry relative="1" as="geometry">
            <mxPoint x="570" y="375" as="targetPoint" />
          </mxGeometry>
        </mxCell>
        <mxCell id="jI5kWpLgNnwxY_XqOduI-76" value="1&lt;div&gt;&lt;br&gt;2&lt;div&gt;&lt;br&gt;3&lt;div&gt;&lt;br&gt;4&lt;div&gt;&lt;br&gt;5&lt;div&gt;&lt;br&gt;6&lt;div&gt;&lt;div&gt;&lt;br&gt;7&lt;div&gt;&lt;br&gt;8&lt;/div&gt;&lt;/div&gt;&lt;/div&gt;&lt;/div&gt;&lt;/div&gt;&lt;/div&gt;&lt;/div&gt;&lt;/div&gt;" style="shape=cylinder3;whiteSpace=wrap;html=1;boundedLbl=1;backgroundOutline=1;size=15;lid=0;" vertex="1" parent="1">
          <mxGeometry x="600" y="145" width="40" height="250" as="geometry" />
        </mxCell>
      </root>
    </mxGraphModel>
  </diagram>
</mxfile>
